<svg xmlns="http://www.w3.org/2000/svg" width="205.442" height="162.934" viewBox="0 0 205.442 162.934">
  <g id="ic_location" transform="translate(-5255.848 241.083)">
    <path id="Path_13342" data-name="Path 13342" d="M49.037,0A49.037,49.037,0,0,1,98.073,49.037c0,27.082-46.945,76.3-46.945,76.3S0,76.119,0,49.037A49.037,49.037,0,0,1,49.037,0Z" transform="translate(5313.18 -203.489)" fill="#008037"/>
    <circle id="Ellipse_666" data-name="Ellipse 666" cx="22.5" cy="22.5" r="22.5" transform="translate(5340 -177)" fill="#fff"/>
    <g id="Path_13343" data-name="Path 13343" transform="translate(5396.085 -192.855)" fill="none">
      <path d="M25.216.065C41.646-1.789,44.831,14.33,44.831,14.33s7.639.869,11.132,5.333S58.8,32.187,58.8,32.187H-4.585c0-1.588-5.777-8.448,0-14.458s13.6,0,13.6,0C8.33,7.786,18.922.065,25.216.065Z" stroke="none"/>
      <path d="M 27.78036689758301 1.916736602783203 C 27.02646636962891 1.916736602783203 26.23912239074707 1.962448120117188 25.44021224975586 2.052602767944336 L 25.32843399047852 2.065214157104492 L 25.21594429016113 2.065214157104492 C 23.83142280578613 2.065214157104492 22.0935115814209 2.561603546142578 20.32235527038574 3.462959289550781 C 18.39084434509277 4.445913314819336 16.56966781616211 5.822370529174805 15.05572128295898 7.443536758422852 C 13.69123458862305 8.904659271240234 12.64659881591797 10.48550224304199 11.95083236694336 12.14218139648438 C 11.19896697998047 13.93243598937988 10.88115692138672 15.76620292663574 11.00621032714844 17.59256935119629 L 11.30929946899414 22.01872634887695 L 7.791965484619141 19.3148365020752 C 7.762611389160156 19.29225921630859 4.765110015869141 17.05802536010742 1.507644653320312 17.05815887451172 C -0.2912101745605469 17.05822563171387 -1.812412261962891 17.7310905456543 -3.142875671386719 19.11520385742188 C -4.670722961425781 20.70463562011719 -5.316131591796875 22.47397041320801 -5.116012573242188 24.5243034362793 C -4.932876586914062 26.40055847167969 -4.087509155273438 28.19221496582031 -3.470256805419922 29.50042533874512 C -3.354457855224609 29.74584579467773 -3.247222900390625 29.97311401367188 -3.150245666503906 30.18693733215332 L 56.84983062744141 30.18693733215332 C 56.83857345581055 29.51541900634766 56.79999160766602 28.70026969909668 56.70535659790039 27.81090354919434 C 56.38681030273438 24.81731414794922 55.58549880981445 22.42622566223145 54.38806533813477 20.89612579345703 C 52.90650177001953 19.00296974182129 50.38722229003906 17.86679077148438 48.53469848632812 17.24701309204102 C 46.40010070800781 16.53286933898926 44.61922454833984 16.31931304931641 44.60453414916992 16.31758117675781 L 43.15168762207031 16.15231323242188 L 42.86846542358398 14.71779155731201 C 42.86215591430664 14.68582534790039 42.21167755126953 11.48419189453125 39.98614501953125 8.259614944458008 C 37.08132171630859 4.050792694091797 32.97470092773438 1.916736602783203 27.78036689758301 1.916736602783203 M 27.78036689758301 -0.08326530456542969 C 41.98488616943359 -0.08326530456542969 44.83058929443359 14.33040237426758 44.83058929443359 14.33040237426758 C 44.83058929443359 14.33040237426758 52.46949005126953 15.19939231872559 55.96308898925781 19.66352462768555 C 59.45668029785156 24.12765884399414 58.80497741699219 32.18693542480469 58.80497741699219 32.18693542480469 L -4.584754943847656 32.18693542480469 C -4.584754943847656 30.59912490844727 -10.36170959472656 23.73905944824219 -4.584754943847656 17.72920227050781 C 1.192188262939453 11.71935081481934 9.010894775390625 17.72920417785645 9.010890960693359 17.72920227050781 C 8.330013275146484 7.785846710205078 18.92203330993652 0.06521415710449219 25.21594429016113 0.06521415710449219 C 26.10842704772949 -0.035491943359375 26.96443748474121 -0.08326530456542969 27.78036689758301 -0.08326530456542969 Z" stroke="none" fill="#e4e4e4"/>
    </g>
    <g id="Path_13344" data-name="Path 13344" transform="translate(5263 -241)" fill="none">
      <path d="M25.216.065C41.646-1.789,44.831,14.33,44.831,14.33s7.639.869,11.132,5.333S58.8,32.187,58.8,32.187H-4.585c0-1.588-5.777-8.448,0-14.458s13.6,0,13.6,0C8.33,7.786,18.922.065,25.216.065Z" stroke="none"/>
      <path d="M 27.78036689758301 1.916736602783203 C 27.02646636962891 1.916736602783203 26.23912239074707 1.962448120117188 25.44021224975586 2.052602767944336 L 25.32843399047852 2.065214157104492 L 25.21594429016113 2.065214157104492 C 23.83142280578613 2.065214157104492 22.0935115814209 2.561603546142578 20.32235527038574 3.462959289550781 C 18.39084434509277 4.445913314819336 16.56966781616211 5.822370529174805 15.05572128295898 7.443536758422852 C 13.69123458862305 8.904659271240234 12.64659881591797 10.48550224304199 11.95083236694336 12.14218139648438 C 11.19896697998047 13.93243598937988 10.88115692138672 15.76620292663574 11.00621032714844 17.59256935119629 L 11.30929946899414 22.01872634887695 L 7.791965484619141 19.3148365020752 C 7.762611389160156 19.29225921630859 4.765110015869141 17.05802536010742 1.507644653320312 17.05815887451172 C -0.2912101745605469 17.05822563171387 -1.812412261962891 17.7310905456543 -3.142875671386719 19.11520385742188 C -4.670722961425781 20.70463562011719 -5.316131591796875 22.47397041320801 -5.116012573242188 24.5243034362793 C -4.932876586914062 26.40055847167969 -4.087509155273438 28.19221496582031 -3.470256805419922 29.50042533874512 C -3.354457855224609 29.74584579467773 -3.247222900390625 29.97311401367188 -3.150245666503906 30.18693733215332 L 56.84983062744141 30.18693733215332 C 56.83857345581055 29.51541900634766 56.79999160766602 28.70026969909668 56.70535659790039 27.81090354919434 C 56.38681030273438 24.81731414794922 55.58549880981445 22.42622566223145 54.38806533813477 20.89612579345703 C 52.90650177001953 19.00296974182129 50.38722229003906 17.86679077148438 48.53469848632812 17.24701309204102 C 46.40010070800781 16.53286933898926 44.61922454833984 16.31931304931641 44.60453414916992 16.31758117675781 L 43.15168762207031 16.15231323242188 L 42.86846542358398 14.71779155731201 C 42.86215591430664 14.68582534790039 42.21167755126953 11.48419189453125 39.98614501953125 8.259614944458008 C 37.08132171630859 4.050792694091797 32.97470092773438 1.916736602783203 27.78036689758301 1.916736602783203 M 27.78036689758301 -0.08326530456542969 C 41.98488616943359 -0.08326530456542969 44.83058929443359 14.33040237426758 44.83058929443359 14.33040237426758 C 44.83058929443359 14.33040237426758 52.46949005126953 15.19939231872559 55.96308898925781 19.66352462768555 C 59.45668029785156 24.12765884399414 58.80497741699219 32.18693542480469 58.80497741699219 32.18693542480469 L -4.584754943847656 32.18693542480469 C -4.584754943847656 30.59912490844727 -10.36170959472656 23.73905944824219 -4.584754943847656 17.72920227050781 C 1.192188262939453 11.71935081481934 9.010894775390625 17.72920417785645 9.010890960693359 17.72920227050781 C 8.330013275146484 7.785846710205078 18.92203330993652 0.06521415710449219 25.21594429016113 0.06521415710449219 C 26.10842704772949 -0.035491943359375 26.96443748474121 -0.08326530456542969 27.78036689758301 -0.08326530456542969 Z" stroke="none" fill="#e4e4e4"/>
    </g>
    <line id="Line_247" data-name="Line 247" x2="12.482" transform="translate(5289.107 -79.56)" fill="none" stroke="#e4e4e4" stroke-linecap="round" stroke-width="2"/>
    <line id="Line_248" data-name="Line 248" x2="26.747" transform="translate(5314.072 -79.56)" fill="none" stroke="#e4e4e4" stroke-linecap="round" stroke-width="2"/>
    <line id="Line_249" data-name="Line 249" x2="71.326" transform="translate(5388.964 -79.56)" fill="none" stroke="#e4e4e4" stroke-linecap="round" stroke-width="2"/>
  </g>
</svg>
